%TF.GenerationSoftware,KiCad,Pcbnew,10.0.4*%
%TF.CreationDate,2026-07-01T13:46:12+01:00*%
%TF.ProjectId,Smart LED Controller,536d6172-7420-44c4-9544-20436f6e7472,rev?*%
%TF.SameCoordinates,Original*%
%TF.FileFunction,Soldermask,Bot*%
%TF.FilePolarity,Negative*%
%FSLAX46Y46*%
G04 Gerber Fmt 4.6, Leading zero omitted, Abs format (unit mm)*
G04 Created by KiCad (PCBNEW 10.0.4) date 2026-07-01 13:46:12*
%MOMM*%
%LPD*%
G01*
G04 APERTURE LIST*
G04 Aperture macros list*
%AMRoundRect*
0 Rectangle with rounded corners*
0 $1 Rounding radius*
0 $2 $3 $4 $5 $6 $7 $8 $9 X,Y pos of 4 corners*
0 Add a 4 corners polygon primitive as box body*
4,1,4,$2,$3,$4,$5,$6,$7,$8,$9,$2,$3,0*
0 Add four circle primitives for the rounded corners*
1,1,$1+$1,$2,$3*
1,1,$1+$1,$4,$5*
1,1,$1+$1,$6,$7*
1,1,$1+$1,$8,$9*
0 Add four rect primitives between the rounded corners*
20,1,$1+$1,$2,$3,$4,$5,0*
20,1,$1+$1,$4,$5,$6,$7,0*
20,1,$1+$1,$6,$7,$8,$9,0*
20,1,$1+$1,$8,$9,$2,$3,0*%
G04 Aperture macros list end*
%ADD10C,2.000000*%
%ADD11C,1.600000*%
%ADD12R,1.800000X1.800000*%
%ADD13C,1.800000*%
%ADD14R,1.700000X1.700000*%
%ADD15C,1.700000*%
%ADD16RoundRect,0.250000X-0.550000X-0.550000X0.550000X-0.550000X0.550000X0.550000X-0.550000X0.550000X0*%
%ADD17C,1.500000*%
G04 APERTURE END LIST*
D10*
%TO.C,SW4*%
X140500000Y-97500000D03*
X140500000Y-91000000D03*
X145000000Y-97500000D03*
X145000000Y-91000000D03*
%TD*%
D11*
%TO.C,C1*%
X112500000Y-93000000D03*
X112500000Y-88000000D03*
%TD*%
D10*
%TO.C,SW1*%
X112500000Y-70500000D03*
X119000000Y-70500000D03*
X112500000Y-75000000D03*
X119000000Y-75000000D03*
%TD*%
D12*
%TO.C,D4*%
X133295000Y-94645000D03*
D13*
X135835000Y-94645000D03*
%TD*%
D11*
%TO.C,R8*%
X141500000Y-100500000D03*
X141500000Y-108120000D03*
%TD*%
D12*
%TO.C,D3*%
X133295000Y-87175000D03*
D13*
X135835000Y-87175000D03*
%TD*%
D11*
%TO.C,R2*%
X141000000Y-70000000D03*
X141000000Y-77620000D03*
%TD*%
D10*
%TO.C,SW3*%
X140000000Y-88000000D03*
X140000000Y-81500000D03*
X144500000Y-88000000D03*
X144500000Y-81500000D03*
%TD*%
D12*
%TO.C,D1*%
X133295000Y-72235000D03*
D13*
X135835000Y-72235000D03*
%TD*%
D12*
%TO.C,D2*%
X133295000Y-79705000D03*
D13*
X135835000Y-79705000D03*
%TD*%
D11*
%TO.C,R3*%
X137500000Y-107120000D03*
X137500000Y-99500000D03*
%TD*%
%TO.C,C3*%
X120000000Y-100000000D03*
X115000000Y-100000000D03*
%TD*%
%TO.C,R7*%
X133500000Y-107120000D03*
X133500000Y-99500000D03*
%TD*%
D10*
%TO.C,SW2*%
X112500000Y-79500000D03*
X119000000Y-79500000D03*
X112500000Y-84000000D03*
X119000000Y-84000000D03*
%TD*%
D14*
%TO.C,J1*%
X112500000Y-107040000D03*
D15*
X112500000Y-104500000D03*
X115040000Y-107040000D03*
X115040000Y-104500000D03*
X117580000Y-107040000D03*
X117580000Y-104500000D03*
%TD*%
D16*
%TO.C,U1*%
X122690000Y-72000000D03*
D11*
X122690000Y-74540000D03*
X122690000Y-77080000D03*
X122690000Y-79620000D03*
X122690000Y-82160000D03*
X122690000Y-84700000D03*
X122690000Y-87240000D03*
X122690000Y-89780000D03*
X122690000Y-92320000D03*
X122690000Y-94860000D03*
X122690000Y-97400000D03*
X122690000Y-99940000D03*
X122690000Y-102480000D03*
X122690000Y-105020000D03*
X130310000Y-105020000D03*
X130310000Y-102480000D03*
X130310000Y-99940000D03*
X130310000Y-97400000D03*
X130310000Y-94860000D03*
X130310000Y-92320000D03*
X130310000Y-89780000D03*
X130310000Y-87240000D03*
X130310000Y-84700000D03*
X130310000Y-82160000D03*
X130310000Y-79620000D03*
X130310000Y-77080000D03*
X130310000Y-74540000D03*
X130310000Y-72000000D03*
%TD*%
D17*
%TO.C,Y1*%
X118000000Y-94380000D03*
X118000000Y-89500000D03*
%TD*%
D11*
%TO.C,C2*%
X112000000Y-101000000D03*
X112000000Y-96000000D03*
%TD*%
%TO.C,R1*%
X145000000Y-78310000D03*
X145000000Y-70690000D03*
%TD*%
M02*
